<?xml version="1.0" encoding="utf-8"?>
<svg width="24" height="24" viewBox="0 0 24 24" fill="none" xmlns="http://www.w3.org/2000/svg">
  <path class="st0" d="M 9.481 5.445 C 9.236 5.411 9.224 5.4 9.34 5.388 C 9.562 5.352 10.076 5.4 10.438 5.48 C 11.277 5.679 12.036 6.192 12.84 7.091 L 13.052 7.335 L 13.354 7.289 C 14.65 7.079 15.98 7.241 17.088 7.756 C 17.392 7.896 17.87 8.176 17.928 8.245 C 17.951 8.27 17.986 8.422 18.009 8.573 C 18.092 9.122 18.057 9.529 17.882 9.845 C 17.789 10.02 17.789 10.066 17.847 10.218 C 17.893 10.334 18.034 10.417 18.161 10.417 C 18.441 10.417 18.734 9.973 18.873 9.355 L 18.932 9.109 L 19.038 9.226 C 19.632 9.891 20.098 10.812 20.168 11.467 L 20.192 11.641 L 20.087 11.49 C 19.913 11.221 19.749 11.047 19.527 10.895 C 19.131 10.627 18.71 10.546 17.602 10.486 C 16.598 10.428 16.027 10.346 15.467 10.16 C 14.509 9.845 14.019 9.436 12.888 7.931 C 12.385 7.266 12.071 6.904 11.756 6.601 C 11.067 5.935 10.379 5.585 9.481 5.445 Z" style="fill: rgb(255, 0, 122);"/>
  <path class="st0" d="M 18.174 6.927 C 18.197 6.484 18.255 6.192 18.383 5.923 C 18.43 5.82 18.477 5.726 18.489 5.726 C 18.5 5.726 18.477 5.807 18.441 5.9 C 18.348 6.157 18.337 6.518 18.395 6.927 C 18.477 7.453 18.512 7.522 19.073 8.093 C 19.329 8.363 19.632 8.701 19.749 8.842 L 19.948 9.097 L 19.749 8.911 C 19.504 8.677 18.944 8.234 18.815 8.176 C 18.734 8.129 18.722 8.129 18.664 8.187 C 18.618 8.234 18.606 8.305 18.606 8.642 C 18.593 9.168 18.524 9.494 18.348 9.833 C 18.255 10.008 18.244 9.973 18.325 9.775 C 18.383 9.623 18.395 9.553 18.395 9.051 C 18.395 8.036 18.279 7.79 17.566 7.382 C 17.392 7.277 17.088 7.127 16.914 7.044 C 16.726 6.963 16.587 6.892 16.598 6.892 C 16.621 6.869 17.311 7.067 17.578 7.183 C 17.986 7.347 18.057 7.359 18.103 7.347 C 18.138 7.312 18.161 7.218 18.174 6.927 Z" style="fill: rgb(255, 0, 122);"/>
  <path class="st0" d="M 9.959 8.665 C 9.469 7.99 9.154 6.939 9.224 6.157 L 9.247 5.911 L 9.363 5.935 C 9.575 5.971 9.935 6.111 10.111 6.216 C 10.577 6.495 10.787 6.881 10.986 7.838 C 11.044 8.118 11.125 8.445 11.161 8.549 C 11.219 8.725 11.441 9.133 11.628 9.388 C 11.756 9.576 11.674 9.669 11.383 9.646 C 10.939 9.6 10.344 9.191 9.959 8.665 Z" style="fill: rgb(255, 0, 122);"/>
  <path class="st0" d="M 17.578 13.742 C 15.268 12.809 14.451 12.003 14.451 10.638 C 14.451 10.44 14.463 10.276 14.463 10.276 C 14.474 10.276 14.556 10.346 14.661 10.428 C 15.128 10.801 15.654 10.965 17.111 11.175 C 17.963 11.303 18.454 11.396 18.897 11.548 C 20.309 12.015 21.185 12.971 21.394 14.266 C 21.452 14.64 21.417 15.353 21.324 15.726 C 21.243 16.018 21.008 16.554 20.95 16.567 C 20.939 16.567 20.915 16.507 20.915 16.413 C 20.892 15.924 20.647 15.457 20.239 15.095 C 19.749 14.675 19.119 14.36 17.578 13.742 Z" style="fill: rgb(255, 0, 122);"/>
  <path class="st0" d="M 15.945 14.127 C 15.922 13.952 15.862 13.73 15.828 13.637 L 15.77 13.462 L 15.875 13.591 C 16.027 13.765 16.143 13.975 16.248 14.266 C 16.33 14.489 16.33 14.559 16.33 14.921 C 16.33 15.27 16.319 15.353 16.248 15.55 C 16.132 15.866 15.991 16.087 15.758 16.332 C 15.338 16.764 14.79 16.998 14.008 17.103 C 13.869 17.114 13.472 17.149 13.121 17.172 C 12.246 17.219 11.662 17.313 11.137 17.5 C 11.067 17.523 10.997 17.546 10.986 17.534 C 10.963 17.511 11.325 17.301 11.616 17.161 C 12.024 16.962 12.445 16.858 13.366 16.694 C 13.821 16.625 14.288 16.531 14.405 16.484 C 15.56 16.122 16.132 15.224 15.945 14.127 Z" style="fill: rgb(255, 0, 122);"/>
  <path class="st0" d="M 17.007 16.006 C 16.703 15.341 16.633 14.711 16.797 14.115 C 16.82 14.057 16.843 13.999 16.866 13.999 C 16.891 13.999 16.96 14.034 17.03 14.081 C 17.17 14.173 17.462 14.337 18.209 14.746 C 19.154 15.259 19.69 15.655 20.064 16.11 C 20.391 16.507 20.588 16.962 20.682 17.523 C 20.74 17.837 20.705 18.596 20.624 18.911 C 20.368 19.903 19.784 20.696 18.932 21.152 C 18.803 21.222 18.699 21.268 18.687 21.268 C 18.676 21.268 18.722 21.152 18.792 21.011 C 19.073 20.416 19.107 19.844 18.897 19.203 C 18.768 18.806 18.5 18.328 17.963 17.523 C 17.322 16.59 17.17 16.344 17.007 16.006 Z" style="fill: rgb(255, 0, 122);"/>
  <path class="st0" d="M 8.314 19.577 C 9.178 18.853 10.238 18.34 11.219 18.176 C 11.639 18.105 12.339 18.129 12.724 18.234 C 13.343 18.398 13.903 18.748 14.195 19.18 C 14.474 19.6 14.603 19.961 14.732 20.767 C 14.778 21.081 14.836 21.408 14.848 21.478 C 14.941 21.898 15.128 22.225 15.361 22.399 C 15.723 22.669 16.353 22.68 16.972 22.447 C 17.076 22.411 17.17 22.376 17.17 22.388 C 17.194 22.411 16.879 22.622 16.668 22.727 C 16.377 22.879 16.143 22.925 15.828 22.925 C 15.268 22.925 14.79 22.634 14.405 22.05 C 14.324 21.933 14.16 21.595 14.019 21.28 C 13.611 20.335 13.401 20.055 12.923 19.739 C 12.503 19.471 11.965 19.412 11.557 19.612 C 11.021 19.868 10.881 20.557 11.254 20.977 C 11.406 21.152 11.686 21.292 11.919 21.327 C 12.351 21.385 12.724 21.046 12.724 20.615 C 12.724 20.335 12.62 20.171 12.339 20.044 C 11.965 19.88 11.557 20.067 11.568 20.428 C 11.568 20.58 11.639 20.673 11.791 20.743 C 11.884 20.79 11.884 20.79 11.814 20.778 C 11.476 20.707 11.394 20.288 11.662 20.02 C 11.988 19.693 12.678 19.832 12.911 20.288 C 13.004 20.475 13.017 20.848 12.934 21.081 C 12.736 21.595 12.176 21.863 11.604 21.711 C 11.219 21.607 11.055 21.501 10.589 21.023 C 9.772 20.183 9.457 20.02 8.291 19.844 L 8.068 19.809 L 8.314 19.577 Z" style="fill: rgb(255, 0, 122);"/>
  <path class="st1" d="M 2.176 0.802 C 4.895 4.104 9.084 9.238 9.294 9.517 C 9.469 9.752 9.398 9.973 9.107 10.137 C 8.943 10.229 8.605 10.323 8.442 10.323 C 8.255 10.323 8.033 10.229 7.882 10.078 C 7.777 9.973 7.322 9.308 6.295 7.709 C 5.513 6.484 4.849 5.468 4.836 5.457 C 4.79 5.433 4.79 5.433 6.214 7.978 C 7.112 9.576 7.403 10.149 7.403 10.218 C 7.403 10.369 7.357 10.452 7.17 10.662 C 6.855 11.012 6.715 11.409 6.61 12.236 C 6.493 13.159 6.179 13.811 5.28 14.921 C 4.755 15.574 4.672 15.69 4.545 15.958 C 4.381 16.286 4.335 16.473 4.311 16.893 C 4.288 17.336 4.335 17.616 4.463 18.036 C 4.579 18.409 4.708 18.654 5.023 19.133 C 5.292 19.553 5.455 19.868 5.455 19.984 C 5.455 20.078 5.478 20.078 5.898 19.984 C 6.902 19.751 7.73 19.354 8.185 18.864 C 8.465 18.56 8.535 18.398 8.535 17.978 C 8.535 17.71 8.523 17.65 8.453 17.488 C 8.337 17.23 8.115 17.021 7.636 16.694 C 7.007 16.262 6.738 15.912 6.668 15.445 C 6.61 15.049 6.68 14.78 7.031 14.046 C 7.392 13.287 7.486 12.971 7.544 12.202 C 7.578 11.712 7.636 11.513 7.777 11.361 C 7.929 11.198 8.057 11.14 8.419 11.093 C 9.014 11.012 9.398 10.86 9.702 10.569 C 9.97 10.323 10.087 10.078 10.099 9.717 L 10.111 9.448 L 9.959 9.285 C 9.41 8.654 1.814 0.299 1.779 0.299 C 1.767 0.299 1.954 0.522 2.176 0.802 Z M 5.759 17.394 C 5.886 17.172 5.817 16.893 5.607 16.752 C 5.408 16.625 5.104 16.683 5.104 16.858 C 5.104 16.904 5.128 16.951 5.198 16.974 C 5.304 17.033 5.315 17.091 5.233 17.219 C 5.152 17.348 5.152 17.465 5.256 17.546 C 5.42 17.674 5.641 17.604 5.759 17.394 Z" style="clip-rule: evenodd; fill: rgb(255, 0, 122); fill-rule: evenodd;"/>
  <path class="st1" d="M 10.484 11.256 C 10.204 11.338 9.935 11.641 9.853 11.945 C 9.807 12.132 9.83 12.47 9.912 12.575 C 10.041 12.739 10.157 12.785 10.484 12.785 C 11.125 12.785 11.674 12.505 11.733 12.167 C 11.791 11.887 11.545 11.502 11.207 11.327 C 11.032 11.233 10.67 11.198 10.484 11.256 Z M 11.231 11.841 C 11.325 11.7 11.29 11.548 11.113 11.444 C 10.799 11.244 10.321 11.409 10.321 11.712 C 10.321 11.864 10.566 12.026 10.799 12.026 C 10.951 12.026 11.161 11.934 11.231 11.841 Z" style="clip-rule: evenodd; fill: rgb(255, 0, 122); fill-rule: evenodd;"/>
</svg>