<?xml version="1.0" standalone="no"?>
<!DOCTYPE svg PUBLIC "-//W3C//DTD SVG 20010904//EN"
 "http://www.w3.org/TR/2001/REC-SVG-20010904/DTD/svg10.dtd">
<svg version="1.0" xmlns="http://www.w3.org/2000/svg"
 width="144.000000pt" height="40.000000pt" viewBox="0 0 144.000000 40.000000"
 preserveAspectRatio="xMidYMid meet">

<g transform="translate(0.000000,40.000000) scale(0.100000,-0.100000)"
fill="#000000" stroke="none">
<path d="M85 313 c32 -36 36 -43 20 -43 -14 0 -28 -17 -47 -59 -32 -67 -33
-80 -15 -105 12 -17 14 -17 37 2 24 20 24 21 6 40 -14 16 -17 29 -11 61 4 23
10 41 14 41 4 0 15 6 24 13 16 11 14 16 -25 52 l-43 40 40 -42z"/>
<path d="M120 324 c0 -12 7 -27 15 -34 20 -17 21 9 0 36 -14 19 -14 19 -15 -2z"/>
<path d="M175 320 c30 -39 47 -50 72 -50 17 0 23 6 23 21 0 13 4 18 13 13 6
-4 9 -4 5 1 -4 4 -29 10 -55 12 -26 2 -54 9 -63 16 -8 6 -6 1 5 -13z"/>
<path d="M285 270 c-3 -5 -1 -10 4 -10 6 0 11 5 11 10 0 6 -2 10 -4 10 -3 0
-8 -4 -11 -10z"/>
<path d="M452 204 c4 -84 17 -104 70 -104 49 0 68 30 68 110 0 55 -3 70 -15
70 -11 0 -15 -17 -17 -71 -2 -55 -7 -74 -20 -83 -13 -8 -23 -8 -35 0 -14 9
-19 28 -21 83 -2 56 -6 71 -19 71 -13 0 -15 -12 -11 -76z"/>
<path d="M770 270 c0 -5 5 -10 10 -10 6 0 10 5 10 10 0 6 -4 10 -10 10 -5 0
-10 -4 -10 -10z"/>
<path d="M213 247 c2 -6 29 -26 60 -44 l57 -32 0 24 c0 27 -31 48 -88 58 -24
5 -32 3 -29 -6z"/>
<path d="M622 167 c4 -73 22 -83 26 -15 3 50 20 72 46 62 12 -5 16 -19 16 -60
0 -31 4 -54 10 -54 7 0 10 24 8 63 l-3 62 -53 2 -53 1 3 -61z"/>
<path d="M770 165 c0 -37 4 -65 10 -65 6 0 10 28 10 65 0 37 -4 65 -10 65 -6
0 -10 -28 -10 -65z"/>
<path d="M831 212 c-13 -24 -3 -37 42 -51 21 -7 36 -18 34 -24 -6 -19 -50 -21
-63 -2 -9 12 -14 13 -20 4 -9 -15 22 -39 51 -39 30 0 58 23 54 45 -2 10 -19
23 -38 30 -19 6 -37 17 -39 23 -6 18 26 26 43 12 17 -14 31 -8 20 9 -11 19
-73 13 -84 -7z"/>
<path d="M963 165 c12 -36 26 -64 32 -62 5 2 17 22 25 45 8 23 17 42 21 42 4
0 12 -21 18 -46 14 -56 29 -53 52 12 21 58 23 74 9 74 -5 0 -15 -21 -21 -46
-13 -49 -23 -48 -36 6 -12 46 -35 45 -48 -2 -15 -54 -23 -55 -36 -4 -6 25 -17
46 -24 46 -10 0 -8 -16 8 -65z"/>
<path d="M1163 215 c-9 -24 6 -31 21 -10 8 11 20 16 30 12 28 -11 18 -34 -18
-41 -23 -4 -37 -14 -41 -27 -11 -32 12 -49 59 -45 l41 4 3 47 c2 26 -2 53 -9
61 -16 19 -78 18 -86 -1z m77 -59 c0 -19 -26 -38 -46 -34 -27 5 -28 27 -2 37
33 14 48 13 48 -3z"/>
<path d="M1290 144 c0 -68 3 -84 15 -84 10 0 15 10 15 30 0 27 2 29 19 18 48
-30 100 38 70 91 -13 22 -22 26 -67 28 l-52 1 0 -84z m96 47 c17 -33 3 -65
-30 -69 -36 -5 -54 39 -31 75 19 29 45 27 61 -6z"/>
<path d="M250 183 c0 -5 9 -21 20 -38 11 -16 20 -38 20 -49 0 -15 3 -16 15 -6
23 19 18 56 -11 79 -27 22 -44 27 -44 14z"/>
<path d="M222 164 c-7 -8 -8 -14 -3 -14 10 0 25 19 20 25 -2 1 -10 -3 -17 -11z"/>
<path d="M115 109 c-4 -6 1 -16 11 -24 16 -12 19 -12 22 1 6 24 42 16 52 -11
5 -14 11 -25 14 -25 7 0 -6 44 -17 58 -12 15 -73 16 -82 1z"/>
</g>
</svg>
